HIERARCHY
ROOT Hips
{
	OFFSET 5.916593 102.079987 -1.721757
	CHANNELS 6 Xposition Yposition Zposition Xrotation Yrotation Zrotation
	JOINT Chest
	{
		OFFSET 1.467972 13.553352 0.553076
		CHANNELS 3 Xrotation Yrotation Zrotation
		JOINT Chest2
		{
			OFFSET -2.137362 20.326759 6.428157
			CHANNELS 3 Xrotation Yrotation Zrotation
			JOINT Chest3
			{
				OFFSET -0.940621 14.756973 2.041265
				CHANNELS 3 Xrotation Yrotation Zrotation
				JOINT Neck
				{
					OFFSET -1.113827 16.853653 3.651027
					CHANNELS 3 Xrotation Yrotation Zrotation
					JOINT Head
					{
						OFFSET -3.831878 9.231674 3.149688
						CHANNELS 3 Xrotation Yrotation Zrotation
						End Site
						{
							OFFSET -3.807098 9.262619 3.088281
						}
					}
				}
				JOINT LeftCollar
				{
					OFFSET 3.292233 12.565872 5.750167
					CHANNELS 3 Xrotation Yrotation Zrotation
					JOINT LeftUpArm
					{
						OFFSET 15.863443 4.149002 -6.295738
						CHANNELS 3 Xrotation Yrotation Zrotation
						JOINT LeftLowArm
						{
							OFFSET 33.650669 -1.300247 2.381176
							CHANNELS 3 Xrotation Yrotation Zrotation
							JOINT LeftHand
							{
								OFFSET 27.136524 -2.852249 12.506815
								CHANNELS 3 Xrotation Yrotation Zrotation
								End Site
								{
									OFFSET 5.930847 -0.623413 2.733431
								}
							}
						}
					}
				}
				JOINT RightCollar
				{
					OFFSET -5.105496 12.068130 5.486594
					CHANNELS 3 Xrotation Yrotation Zrotation
					JOINT RightUpArm
					{
						OFFSET -16.278917 0.182114 -6.592423
						CHANNELS 3 Xrotation Yrotation Zrotation
						JOINT RightLowArm
						{
							OFFSET -31.400560 -3.649490 11.849915
							CHANNELS 3 Xrotation Yrotation Zrotation
							JOINT RightHand
							{
								OFFSET -26.641167 -3.258774 13.438124
								CHANNELS 3 Xrotation Yrotation Zrotation
								End Site
								{
									OFFSET -5.822693 -0.712219 2.937046
								}
							}
						}
					}
				}
			}
		}
	}
	JOINT LeftUpLeg
	{
		OFFSET 9.778040 -1.135826 1.875889
		CHANNELS 3 Xrotation Yrotation Zrotation
		JOINT LeftLowLeg
		{
			OFFSET -0.179792 -46.889637 6.731996
			CHANNELS 3 Xrotation Yrotation Zrotation
			JOINT LeftFoot
			{
				OFFSET -3.655552 -41.616180 -15.978077
				CHANNELS 3 Xrotation Yrotation Zrotation
				JOINT LeftToe
				{
					OFFSET -7.131969 -15.304836 16.566738
					CHANNELS 3 Xrotation Yrotation Zrotation
					End Site
					{
						OFFSET -1.857339 -1.950407 23.501171
					}
				}
			}
		}
	}
	JOINT RightUpLeg
	{
		OFFSET -9.778066 1.135628 -1.875898
		CHANNELS 3 Xrotation Yrotation Zrotation
		JOINT RightLowLeg
		{
			OFFSET -26.092142 -30.926086 24.633083
			CHANNELS 3 Xrotation Yrotation Zrotation
			JOINT RightFoot
			{
				OFFSET -7.216475 -44.059189 2.699989
				CHANNELS 3 Xrotation Yrotation Zrotation
				JOINT RightToe
				{
					OFFSET -9.226368 -0.283472 21.779593
					CHANNELS 3 Xrotation Yrotation Zrotation
					End Site
					{
						OFFSET -9.757900 14.532673 15.910404
					}
				}
			}
		}
	}
}
MOTION
Frames: 5
Frame Time: 0.033333
-0.483748 105.359009 -1.111722 3.628804 10.375886 6.322987 -14.098279 3.023339 -8.299819 -0.465428 1.028264 -0.016884 4.256406 -6.821126 -2.886043 -7.589475 18.050884 -9.257953 -0.000002 0.000001 -0.000001 6.938205 4.941440 -30.645454 7.768229 -5.767809 -43.754325 13.148452 -3.933535 -3.144332 -0.000002 -0.000001 0.000001 5.651229 -9.896854 25.418155 24.435642 -3.223216 49.979134 11.831608 20.478065 1.691957 -0.000003 0.000001 0.000001 7.973915 -0.782507 -1.545678 -15.454201 7.111545 5.212652 4.301758 -10.192353 7.725122 -0.000000 0.000000 0.000003 32.156715 2.344371 27.705078 -18.883593 -4.886290 -19.875157 24.993855 15.867346 -11.594446 -0.000005 -0.000000 0.000001 
-0.484485 105.360565 -1.112966 3.648151 10.283214 6.322467 -14.022486 2.992099 -8.242517 -1.384156 1.165364 -0.301025 5.227571 -7.008574 -2.607312 -7.974546 18.234435 -9.331178 -0.000004 0.000002 -0.000000 6.908637 4.967798 -30.608718 7.780463 -5.460984 -43.801067 12.905573 -4.348798 -3.223238 0.000000 -0.000000 -0.000001 5.650006 -9.270273 25.410997 24.393647 -3.224862 50.076720 11.506125 20.388236 1.690865 0.000001 0.000001 -0.000001 8.025783 -0.814871 -1.509082 -15.309912 7.064481 5.183589 4.171555 -10.314141 7.605858 0.000001 -0.000000 0.000003 32.176526 2.347655 27.689911 -18.900599 -4.855438 -19.898583 25.099034 15.994869 -11.654047 -0.000003 0.000001 0.000000 
-0.489022 105.363129 -1.115028 4.198568 10.236960 6.257116 -14.809144 3.102172 -8.319170 -0.825299 1.115605 -0.142942 4.996902 -7.087590 -2.763499 -8.003466 18.212705 -9.274916 -0.000006 0.000002 -0.000000 6.929591 5.380646 -30.455981 7.982072 -5.605857 -43.910545 13.219536 -4.485567 -2.888950 -0.000000 0.000001 0.000001 5.742842 -9.349470 25.271203 24.461855 -2.849339 50.145056 11.817752 20.259191 1.393880 -0.000001 0.000001 0.000001 7.506935 -0.820252 -1.463022 -15.346757 7.039408 5.137717 4.203656 -10.343942 7.597952 0.000000 0.000000 0.000005 31.998767 2.428310 27.667826 -19.456726 -4.554175 -19.893846 25.179209 16.102355 -11.448365 -0.000000 -0.000000 0.000001 
-0.490748 105.365028 -1.114994 4.139710 10.124819 6.281973 -14.860055 3.123935 -8.338780 -0.802479 1.103858 -0.161211 4.971655 -6.952207 -2.710808 -7.843731 18.120791 -9.223029 -0.000004 0.000004 -0.000000 6.953474 5.009592 -30.589617 7.880729 -5.540806 -43.892127 13.006438 -4.481994 -2.915114 0.000002 0.000001 0.000000 5.636134 -9.660489 25.176890 24.291518 -2.718297 50.195460 11.697288 20.054330 1.660652 -0.000002 0.000003 -0.000001 7.392691 -0.813395 -1.513427 -15.018008 6.840978 5.103493 3.962097 -10.116287 7.314824 -0.000001 -0.000001 0.000003 31.968311 2.428051 27.638827 -19.262467 -4.477968 -19.936772 25.107514 16.100018 -11.260798 -0.000000 -0.000001 -0.000000 
-0.495294 105.365608 -1.116619 4.272130 10.064945 6.244143 -14.721675 3.103358 -8.294575 -1.301532 1.066677 -0.225289 5.256270 -6.852290 -2.673501 -7.607989 18.109989 -9.271037 -0.000000 0.000003 -0.000002 6.931616 4.703268 -30.709087 7.740819 -5.441281 -43.805377 12.805771 -4.632690 -2.984375 0.000000 -0.000002 -0.000001 5.535906 -9.785837 25.342855 24.311660 -3.196433 50.111168 11.506633 20.374948 2.014786 0.000000 0.000001 0.000002 7.466229 -0.824577 -1.493722 -15.097747 6.833765 5.192645 4.099601 -10.317106 7.445054 0.000000 0.000000 0.000005 31.762504 2.461400 27.641900 -18.887910 -4.629947 -19.878050 25.280820 16.214220 -11.800577 -0.000004 -0.000002 0.000002 
